<svg width="17" height="16" viewBox="0 0 17 16" fill="none" xmlns="http://www.w3.org/2000/svg">
<path d="M8.67185 11.0729H4.95135L4.19122 13.4232C4.17125 13.5132 4.09127 13.5732 4.00126 13.5632H2.12094C2.01096 13.5632 1.98095 13.5032 2.01096 13.3832L5.23142 4.11194C5.26143 4.01199 5.29143 3.90191 5.33137 3.78189C5.37141 3.57186 5.39138 3.3519 5.39138 3.13184C5.38144 3.08186 5.42138 3.03179 5.47145 3.02185H8.06174C8.14181 3.02185 8.18176 3.05186 8.19179 3.10183L11.8422 13.4032C11.8723 13.5132 11.8422 13.5632 11.7423 13.5632H9.65195C9.58201 13.5732 9.51197 13.5233 9.49199 13.4532L8.67185 11.0729ZM5.53146 9.04263H8.07177C8.01176 8.8326 7.93178 8.58254 7.84177 8.32253C7.75176 8.0525 7.66175 7.76249 7.57174 7.46245C7.47169 7.15238 7.38168 6.85234 7.28163 6.54226C7.18168 6.23228 7.09167 5.94218 7.0116 5.65217C6.93162 5.3722 6.86158 5.1121 6.79163 4.87207H6.77157C6.68155 5.30216 6.57157 5.73225 6.43158 6.16224C6.28156 6.64231 6.13154 7.14234 5.97149 7.64247C5.84232 8.11451 5.69554 8.58156 5.53146 9.04263ZM14.0726 4.77202C13.7425 4.78206 13.4225 4.65201 13.1825 4.42201C12.9525 4.17194 12.8325 3.8419 12.8424 3.50192C12.8325 3.16184 12.9624 2.84183 13.2025 2.61173C13.4425 2.38173 13.7626 2.26172 14.0926 2.26172C14.4827 2.26172 14.7827 2.38173 15.0027 2.61173C15.2244 2.85421 15.3427 3.17355 15.3327 3.50192C15.3428 3.8419 15.2228 4.17194 14.9827 4.42201C14.7527 4.66204 14.4127 4.79209 14.0726 4.77202ZM12.9525 13.4532V5.75222C12.9525 5.65217 12.9924 5.61214 13.0824 5.61214H15.0627C15.1527 5.61214 15.1928 5.66221 15.1928 5.75222V13.4532C15.1928 13.5632 15.1527 13.6133 15.0627 13.6133H13.1025C13.0025 13.6133 12.9525 13.5533 12.9525 13.4532Z" fill="#FF9A00"/>
</svg>
