<svg width="16" height="16" viewBox="0 0 16 16" fill="none" xmlns="http://www.w3.org/2000/svg">
<path d="M6.43313 8.64487C6.48662 7.68692 6.95345 6.84292 7.65776 6.24462C8.34847 5.65701 9.27819 5.29785 10.2926 5.29785C11.306 5.29785 12.2357 5.65701 12.9269 6.24462C13.6307 6.84292 14.0975 7.68692 14.1515 8.64383C14.2049 9.62814 13.8112 10.5425 13.1205 11.2203C12.4162 11.9098 11.4144 12.3425 10.2926 12.3425C9.1708 12.3425 8.16703 11.9098 7.4632 11.2203C6.77194 10.5425 6.37923 9.62814 6.43313 8.64487Z" fill="white"/>
<path d="M8.31209 8.73107C8.33949 8.23954 8.57905 7.80646 8.94042 7.49948C9.29482 7.19795 9.77186 7.01367 10.2924 7.01367C10.8123 7.01367 11.2894 7.19795 11.644 7.49948C12.0052 7.80646 12.2447 8.23954 12.2724 8.73052C12.2998 9.23558 12.0978 9.70476 11.7434 10.0526C11.3819 10.4064 10.868 10.6283 10.2924 10.6283C9.71678 10.6283 9.20171 10.4064 8.84055 10.0526C8.48595 9.70476 8.28442 9.23558 8.31209 8.73107Z" fill="#265787"/>
<path d="M5.15878 9.72431C5.16216 9.91666 5.22317 10.2905 5.31475 10.5824C5.50731 11.2002 5.83375 11.7718 6.28795 12.2756C6.75416 12.7934 7.32816 13.2093 7.9912 13.5045C8.68813 13.8146 9.44324 13.9727 10.2276 13.9714C11.0107 13.9703 11.7658 13.8092 12.4627 13.4967C13.1257 13.1986 13.6993 12.7809 14.1646 12.2629C14.6186 11.757 14.9446 11.1844 15.1376 10.5665C15.2338 10.2587 15.2951 9.94105 15.3205 9.61954C15.3445 9.3059 15.3344 8.99058 15.2902 8.67913C15.2038 8.06827 14.9935 7.49509 14.6696 6.97263C14.3734 6.49256 13.9915 6.07225 13.5376 5.71847L13.5386 5.71764L8.95688 2.18283C8.95274 2.17966 8.94942 2.17628 8.94501 2.17345C8.64437 1.94155 8.1389 1.94238 7.80831 2.17476C7.47406 2.40976 7.43583 2.79832 7.73329 3.04347L7.73198 3.04478L9.64297 4.6062L3.81848 4.61241H3.81075C3.32929 4.61297 2.86654 4.9303 2.77495 5.33143C2.68082 5.74 3.00775 6.07894 3.50832 6.0808L3.50756 6.0826L6.45973 6.07687L1.19172 10.1399C1.18503 10.1449 1.17778 10.1501 1.17157 10.155C0.674651 10.5374 0.513981 11.1732 0.826969 11.5755C1.14465 11.9847 1.82011 11.9855 2.32221 11.5779L5.19736 9.21352C5.19736 9.21352 5.15539 9.53272 5.15878 9.72431ZM12.5468 10.7932C11.9544 11.3996 11.125 11.7435 10.2276 11.7453C9.32888 11.7469 8.49951 11.4061 7.90714 10.8007C7.61769 10.5056 7.40498 10.1662 7.27385 9.80465C7.14486 9.44864 7.09526 9.06874 7.1285 8.69155C7.15976 8.31962 7.26998 7.96481 7.44591 7.64382C7.61872 7.3282 7.85669 7.0431 8.15056 6.80189C8.72643 6.33037 9.45952 6.07508 10.2263 6.07404C10.9938 6.07301 11.7264 6.32588 12.3029 6.79588C12.5962 7.03606 12.8339 7.3202 13.0068 7.63519C13.185 7.95818 13.2936 8.31496 13.3254 8.68251C13.3582 9.05946 13.3084 9.43903 13.1795 9.79478C13.0481 10.1574 12.8362 10.4968 12.5468 10.7932Z" fill="#FFA114"/>
</svg>
