<svg width="16" height="16" viewBox="0 0 16 16" fill="none" xmlns="http://www.w3.org/2000/svg">
<path d="M4.57999 13.6948C4.57999 13.8034 4.5593 13.8345 4.44034 13.8345H2.78516C2.67654 13.8345 2.64551 13.7828 2.64551 13.6948V2.13966C2.64551 2.03104 2.69723 2 2.78516 2H4.45585C4.54378 2 4.58516 2.03103 4.58516 2.12931V13.6948H4.57999Z" fill="#FF408C"/>
<path fill-rule="evenodd" clip-rule="evenodd" d="M10.9007 4.94828C11.1283 4.94828 11.2576 4.94828 11.4696 4.96897V2.10862C11.4696 2.03104 11.5214 2 11.5783 2H13.3214C13.4093 2 13.43 2.03104 13.43 2.08793V12.1483C13.43 12.4483 13.43 12.8259 13.4817 13.2345C13.4817 13.3114 13.4614 13.3222 13.3855 13.3627L13.3834 13.3638C12.4576 13.8034 11.48 14 10.5645 14C8.18516 14 6.48344 12.5259 6.48344 9.52069C6.47309 6.95 8.17482 4.94828 10.9007 4.94828ZM11.4696 6.70181C11.3092 6.62423 11.092 6.59319 10.8334 6.59319C9.44716 6.59319 8.47475 7.65871 8.47475 9.43285C8.47475 11.4553 9.46268 12.2725 10.7041 12.2725C10.973 12.2725 11.2523 12.2415 11.4696 12.1432V6.70181Z" fill="#FF408C"/>
</svg>
