<svg width="16" height="16" viewBox="0 0 16 16" fill="none" xmlns="http://www.w3.org/2000/svg">
<path d="M0.666504 13.2949V2.83921C0.666504 2.76805 0.696987 2.72747 0.768146 2.72747C0.940851 2.72747 1.10346 2.72747 1.33713 2.71728C1.58099 2.70708 1.83505 2.70708 2.1094 2.69699C2.38374 2.68679 2.67838 2.68679 2.9934 2.6766C3.30833 2.6665 3.61316 2.6665 3.91799 2.6665C4.75122 2.6665 5.44214 2.76805 6.01121 2.98143C6.52129 3.15466 6.98639 3.43929 7.37275 3.81466C7.70017 4.14316 7.95314 4.5382 8.11454 4.97302C8.26695 5.39978 8.34821 5.83673 8.34821 6.29397C8.34821 7.16779 8.14502 7.88919 7.73855 8.45826C7.33208 9.02725 6.7631 9.45401 6.10266 9.69787C5.41165 9.95193 4.64958 10.0434 3.81644 10.0434C3.57258 10.0434 3.40997 10.0434 3.30833 10.0332C3.20678 10.023 3.06446 10.023 2.87147 10.023V13.2847C2.88157 13.3558 2.83079 13.4168 2.75964 13.427H0.788436C0.70718 13.427 0.666504 13.3863 0.666504 13.2949ZM2.88157 4.68848V8.10257C3.02388 8.11276 3.15591 8.12295 3.27785 8.12295H3.81644C4.21272 8.12295 4.609 8.06199 4.98489 7.94005C5.31011 7.84861 5.59455 7.65551 5.81812 7.40146C6.0315 7.1475 6.13315 6.80199 6.13315 6.35494C6.14269 6.03739 6.0616 5.7237 5.89938 5.45055C5.72667 5.1864 5.48281 4.98321 5.18817 4.87137C4.81219 4.71896 4.40572 4.65799 3.98915 4.66819C3.72499 4.66819 3.49123 4.66819 3.29823 4.67838C3.09495 4.66819 2.95273 4.67838 2.88157 4.68848ZM14.6887 7.48281C14.3838 7.3202 14.0587 7.20846 13.7132 7.1373C13.3372 7.05605 12.9613 7.00518 12.5751 7.00518C12.372 6.99508 12.1586 7.02557 11.9655 7.07634C11.8335 7.10682 11.7216 7.17798 11.6506 7.27953C11.5997 7.36088 11.5692 7.46242 11.5692 7.55387C11.5692 7.64532 11.6099 7.73677 11.6709 7.81812C11.7623 7.92986 11.8842 8.02131 12.0164 8.09247C12.2519 8.21448 12.4926 8.32635 12.7378 8.42778C13.2864 8.61068 13.8149 8.86464 14.3026 9.16947C14.6379 9.38285 14.9122 9.66739 15.1052 10.0129C15.2678 10.338 15.3491 10.6936 15.339 11.0594C15.3491 11.537 15.2069 12.0146 14.9427 12.4109C14.6593 12.8165 14.2638 13.1307 13.8047 13.3152C13.3067 13.5285 12.6971 13.6404 11.9655 13.6404C11.4981 13.6404 11.0409 13.5997 10.5837 13.5082C10.2253 13.4463 9.87675 13.337 9.54724 13.1831C9.47608 13.1424 9.4253 13.0713 9.4354 12.99V11.222C9.4354 11.1915 9.4456 11.1509 9.47608 11.1306C9.50656 11.1103 9.53704 11.1204 9.56753 11.1408C9.9638 11.3744 10.3804 11.537 10.8275 11.6386C11.2136 11.7402 11.6201 11.791 12.0265 11.791C12.4126 11.791 12.687 11.7402 12.8699 11.6488C13.0324 11.5776 13.1442 11.4049 13.1442 11.222C13.1442 11.0798 13.0629 10.9477 12.9004 10.8155C12.7378 10.6835 12.4024 10.5311 11.9045 10.338C11.3938 10.158 10.9087 9.9121 10.4617 9.60642C10.1433 9.37948 9.87951 9.08442 9.68946 8.74271C9.52685 8.41759 9.4456 8.06199 9.45579 7.70629C9.45579 7.26943 9.57772 6.85277 9.8012 6.47687C10.0553 6.0704 10.4312 5.74528 10.8681 5.542C11.3457 5.29813 11.9452 5.1864 12.6666 5.1864C13.0833 5.1864 13.51 5.21688 13.9266 5.27784C14.2314 5.31852 14.5261 5.39978 14.8004 5.51152C14.8411 5.52171 14.8818 5.56238 14.902 5.60296C14.9122 5.64364 14.9223 5.68432 14.9223 5.7249V7.38117C14.9223 7.42184 14.902 7.46242 14.8716 7.48281C14.7801 7.5031 14.7293 7.5031 14.6887 7.48281Z" fill="#31A8FF"/>
</svg>
